<svg width="1024" height="1024" viewBox="0 0 1024 1024" fill="none" xmlns="http://www.w3.org/2000/svg">
<path d="M233.875 781H179.25L168.5 819H131.5L191.125 637H223L281.5 819H244.5L233.875 781ZM187.875 751.125H225.625L207 684.125L187.875 751.125ZM344 791.125H423.625V819H296.5V797.5L372.25 712H298.25V683.75H420.5V704.625L344 791.125ZM585.625 665.625H529.5V819H494.25V665.625H438.875V637H585.625V665.625ZM672.5 821.5C662.083 821.5 652.625 819.792 644.125 816.375C635.625 812.958 628.333 808.292 622.25 802.375C616.167 796.542 611.458 789.667 608.125 781.75C604.875 773.75 603.25 765.208 603.25 756.125V751.125C603.25 740.792 604.875 731.375 608.125 722.875C611.375 714.292 615.917 706.917 621.75 700.75C627.583 694.583 634.5 689.792 642.5 686.375C650.5 682.958 659.208 681.25 668.625 681.25C678.375 681.25 687.042 682.875 694.625 686.125C702.292 689.292 708.792 693.792 714.125 699.625C719.375 705.458 723.375 712.5 726.125 720.75C728.875 728.917 730.25 737.958 730.25 747.875V762.625H638.5V763C639.667 768.417 641.167 772.792 643 776.125C644.833 779.375 647.292 782.333 650.375 785C653.542 787.75 657.167 789.875 661.25 791.375C665.333 792.875 669.792 793.625 674.625 793.625C681.458 793.625 688.083 792.333 694.5 789.75C700.917 787.167 706.125 783.292 710.125 778.125L727.5 796.875C723.083 803.125 716.083 808.792 706.5 813.875C696.917 818.958 685.583 821.5 672.5 821.5ZM668.375 709.375C664.458 709.375 660.875 710.083 657.625 711.5C654.375 712.833 651.542 714.792 649.125 717.375C646.625 719.958 644.542 723.042 642.875 726.625C641.208 730.208 639.958 734.208 639.125 738.625H696.125V735.875C696.125 732.208 695.458 728.75 694.125 725.5C692.792 722.25 690.958 719.417 688.625 717C686.292 714.667 683.417 712.833 680 711.5C676.667 710.083 672.792 709.375 668.375 709.375ZM813.625 744.25L794.375 765.375V819H759.125V637H794.375V720.375L810.875 698.125L855.125 637H898.125L836.875 717.5L900.375 819H858.625L813.625 744.25Z" fill="#904A45"/>
<path d="M796.989 626.75H228.011L512.5 134L796.989 626.75ZM288.565 591H735.435L512 204L288.565 591Z" fill="#904A45"/>
<path d="M666.152 551H357.848L512 284L666.152 551ZM402.881 525H621.119L512 336L402.881 525Z" fill="#904A45"/>
<path d="M512.5 390L575.287 498.75H449.713L512.5 390Z" fill="#904A45"/>
<path d="M371 301L406 322.5L416.5 304L395 292.5L408 270.5L422 278L444 242.5H406L371 301Z" fill="#904A45"/>
<path d="M655 302.5L620 324L609.5 305.5L631 294L618 272L604 279.5L582 244H620L655 302.5Z" fill="#904A45"/>
<path d="M301.652 421.594L337.067 442.403L325.662 460.359L305.415 446.775L292.093 468.582L305.288 477.422L284.271 513.513L266.432 479.961L301.652 421.594Z" fill="#904A45"/>
<path d="M723.162 420.094L687.747 440.903L699.152 458.859L719.4 445.275L732.721 467.082L719.527 475.922L740.543 512.013L758.383 478.461L723.162 420.094Z" fill="#904A45"/>
<path d="M428.251 667.373L428.251 626.297L408.499 626.297L408.499 651.307L382.063 651.307L382.063 635.804L340 635.804L370 667.373L428.251 667.373Z" fill="#904A45"/>
<path d="M594.767 667.373L594.767 626.297L614.519 626.297L614.519 651.307L640.955 651.307L640.955 635.804L683.018 635.804L653.018 667.373L594.767 667.373Z" fill="#904A45"/>
</svg>
