<svg width="1024" height="1024" viewBox="0 0 1024 1024" fill="none" xmlns="http://www.w3.org/2000/svg">
<path d="M796.979 722.75H228L512.489 230L796.979 722.75ZM288.555 687H735.424L511.989 300L288.555 687Z" fill="#FFB3AD"/>
<path d="M666.142 647H357.837L511.989 380L666.142 647ZM402.87 621H621.108L511.989 432L402.87 621Z" fill="#FFB3AD"/>
<path d="M512.489 486L575.276 594.75H449.702L512.489 486Z" fill="#FFB3AD"/>
<path d="M370.989 397L405.989 418.5L416.489 400L394.989 388.5L407.989 366.5L421.989 374L443.989 338.5H405.989L370.989 397Z" fill="#FFB3AD"/>
<path d="M654.989 398.5L619.989 420L609.489 401.5L630.989 390L617.989 368L603.989 375.5L581.989 340H619.989L654.989 398.5Z" fill="#FFB3AD"/>
<path d="M301.642 517.594L337.057 538.403L325.651 556.359L305.404 542.775L292.082 564.582L305.277 573.422L284.261 609.513L266.421 575.961L301.642 517.594Z" fill="#FFB3AD"/>
<path d="M723.151 516.094L687.736 536.903L699.141 554.859L719.389 541.275L732.711 563.082L719.516 571.922L740.532 608.013L758.372 574.461L723.151 516.094Z" fill="#FFB3AD"/>
<path d="M428.24 763.373L428.24 722.297L408.488 722.297L408.488 747.307L382.052 747.307L382.052 731.804L339.989 731.804L369.989 763.373L428.24 763.373Z" fill="#FFB3AD"/>
<path d="M594.756 763.373L594.756 722.297L614.508 722.297L614.508 747.307L640.945 747.307L640.945 731.804L683.007 731.804L653.007 763.373L594.756 763.373Z" fill="#FFB3AD"/>
</svg>
